<svg xmlns="http://www.w3.org/2000/svg" viewBox="0 0 1600 1200" role="img" aria-labelledby="title desc">
  <title id="title">Portal academico</title>
  <desc id="desc">Ilustracion de un espacio de estudio con escritorio, laptop, libros y tarjetas academicas.</desc>
  <defs>
    <linearGradient id="bg" x1="0" y1="0" x2="1" y2="1">
      <stop offset="0%" stop-color="#203546"/>
      <stop offset="45%" stop-color="#0f2230"/>
      <stop offset="100%" stop-color="#08141f"/>
    </linearGradient>
    <linearGradient id="glow" x1="0" y1="0" x2="1" y2="1">
      <stop offset="0%" stop-color="#f6b15d"/>
      <stop offset="100%" stop-color="#ef7f38"/>
    </linearGradient>
    <linearGradient id="screen" x1="0" y1="0" x2="0" y2="1">
      <stop offset="0%" stop-color="#f4f8fd"/>
      <stop offset="100%" stop-color="#dfeaf4"/>
    </linearGradient>
    <filter id="blur-lg" x="-40%" y="-40%" width="180%" height="180%">
      <feGaussianBlur stdDeviation="46"/>
    </filter>
    <filter id="shadow" x="-40%" y="-40%" width="180%" height="180%">
      <feDropShadow dx="0" dy="24" stdDeviation="32" flood-color="#050a10" flood-opacity="0.36"/>
    </filter>
  </defs>

  <rect width="1600" height="1200" fill="url(#bg)"/>
  <circle cx="190" cy="226" r="150" fill="#f6b15d" opacity="0.7" filter="url(#blur-lg)"/>
  <circle cx="1320" cy="178" r="190" fill="#5d90b8" opacity="0.32" filter="url(#blur-lg)"/>
  <circle cx="1190" cy="912" r="220" fill="#214b64" opacity="0.34" filter="url(#blur-lg)"/>

  <g opacity="0.26">
    <path d="M0 932C206 844 345 824 485 864C628 905 745 986 907 981C1075 977 1181 849 1329 806C1434 775 1516 773 1600 804V1200H0Z" fill="#0c1822"/>
    <path d="M0 1020C157 941 285 929 434 959C613 995 708 1099 892 1081C1062 1064 1224 932 1407 925C1482 922 1549 934 1600 958V1200H0Z" fill="#122433"/>
  </g>

  <g opacity="0.28">
    <rect x="118" y="116" width="440" height="266" rx="24" fill="#d9e5ef"/>
    <rect x="148" y="146" width="156" height="204" rx="12" fill="#f7fbff"/>
    <rect x="332" y="146" width="196" height="24" rx="12" fill="#f7fbff"/>
    <rect x="332" y="188" width="168" height="16" rx="8" fill="#f7fbff"/>
    <rect x="332" y="218" width="182" height="16" rx="8" fill="#f7fbff"/>
    <rect x="332" y="262" width="152" height="72" rx="18" fill="#f7fbff"/>
  </g>

  <g transform="translate(840 270)" filter="url(#shadow)">
    <rect x="0" y="0" width="420" height="270" rx="24" fill="#0f1c29"/>
    <rect x="18" y="18" width="384" height="214" rx="16" fill="url(#screen)"/>
    <rect x="84" y="250" width="252" height="20" rx="10" fill="#a9b8c7"/>
    <path d="M38 236H384L430 300H-8Z" fill="#d6e0ea"/>
    <rect x="46" y="46" width="128" height="118" rx="20" fill="#e6eef7"/>
    <rect x="194" y="46" width="160" height="26" rx="13" fill="#dbe7f1"/>
    <rect x="194" y="88" width="134" height="16" rx="8" fill="#dbe7f1"/>
    <rect x="194" y="118" width="150" height="16" rx="8" fill="#dbe7f1"/>
    <rect x="194" y="150" width="102" height="48" rx="16" fill="#f6b15d"/>
    <circle cx="110" cy="104" r="28" fill="#ef7f38" opacity="0.88"/>
    <path d="M84 132C95 117 105 112 122 112C139 112 150 117 162 132V154H84Z" fill="#284b63" opacity="0.75"/>
  </g>

  <g transform="translate(1062 186)" filter="url(#shadow)">
    <rect x="0" y="0" width="188" height="124" rx="24" fill="rgba(240,246,251,0.92)"/>
    <rect x="22" y="22" width="96" height="18" rx="9" fill="#d6e4ef"/>
    <rect x="22" y="54" width="146" height="16" rx="8" fill="#d6e4ef"/>
    <rect x="22" y="82" width="118" height="16" rx="8" fill="#d6e4ef"/>
    <circle cx="146" cy="36" r="18" fill="url(#glow)"/>
  </g>

  <g transform="translate(1128 406)" filter="url(#shadow)">
    <rect x="0" y="0" width="220" height="146" rx="26" fill="rgba(18,32,46,0.94)"/>
    <rect x="22" y="22" width="116" height="18" rx="9" fill="#365a73"/>
    <rect x="22" y="58" width="174" height="16" rx="8" fill="#29475e"/>
    <rect x="22" y="88" width="152" height="16" rx="8" fill="#29475e"/>
    <rect x="22" y="112" width="88" height="12" rx="6" fill="#f6b15d"/>
  </g>

  <g transform="translate(302 706)" filter="url(#shadow)">
    <rect x="0" y="80" width="608" height="42" rx="21" fill="#173044"/>
    <rect x="0" y="0" width="230" height="92" rx="18" fill="#f08a41"/>
    <rect x="26" y="18" width="178" height="14" rx="7" fill="#ffdcbf" opacity="0.8"/>
    <rect x="26" y="44" width="136" height="10" rx="5" fill="#ffdcbf" opacity="0.7"/>
    <rect x="248" y="24" width="94" height="68" rx="16" fill="#f2f6fb"/>
    <rect x="354" y="6" width="102" height="86" rx="16" fill="#dce8f2"/>
    <rect x="468" y="20" width="122" height="72" rx="16" fill="#365a73"/>
  </g>

  <g transform="translate(1248 720)" filter="url(#shadow)">
    <rect x="18" y="0" width="22" height="148" rx="11" fill="#183648"/>
    <ellipse cx="30" cy="168" rx="58" ry="16" fill="#132533"/>
    <path d="M30 12C56 22 78 42 78 72C78 106 55 128 30 142C6 128 -18 106 -18 72C-18 42 2 22 30 12Z" fill="#4d7c58"/>
    <path d="M30 26C50 36 62 52 62 72C62 94 48 108 30 120C12 108 -2 94 -2 72C-2 52 12 36 30 26Z" fill="#7bb080"/>
  </g>
</svg>
